<?xml version="1.0" encoding="UTF-8"?>
<!DOCTYPE svg PUBLIC "-//W3C//DTD SVG 1.1//EN" "http://www.w3.org/Graphics/SVG/1.1/DTD/svg11.dtd">
<svg xmlns="http://www.w3.org/2000/svg" version="1.1" width="128px" height="128px" style="shape-rendering:geometricPrecision; text-rendering:geometricPrecision; image-rendering:optimizeQuality; fill-rule:evenodd; clip-rule:evenodd" xmlns:xlink="http://www.w3.org/1999/xlink">
<g><path style="opacity:0.983" fill="#dfbb7d" d="M 97.5,32.5 C 94.7131,33.4767 91.7131,33.81 88.5,33.5C 86.6394,30.9784 84.6394,28.4784 82.5,26C 69.8333,25.3333 57.1667,25.3333 44.5,26C 37.6241,36.2486 31.1241,46.7486 25,57.5C 24.3333,58.8333 24.3333,60.1667 25,61.5C 27.4333,65.3674 29.6,69.3674 31.5,73.5C 31.191,77.4232 29.8576,80.7565 27.5,83.5C 23.7376,76.3019 19.7376,69.3019 15.5,62.5C 15.2628,58.5898 16.0961,54.9231 18,51.5C 23,42.8333 28,34.1667 33,25.5C 34.7932,22.7047 36.9598,20.2047 39.5,18C 54.4319,16.3826 69.4319,16.0493 84.5,17C 90.8203,20.4585 95.1536,25.6252 97.5,32.5 Z"/></g>
<g><path style="opacity:1" fill="#a67131" d="M 88.5,33.5 C 93.1587,42.1496 97.8254,50.8162 102.5,59.5C 96.7331,71.5353 90.0665,83.0353 82.5,94C 69.8333,94.6667 57.1667,94.6667 44.5,94C 39.7673,87.3557 35.434,80.5224 31.5,73.5C 29.6,69.3674 27.4333,65.3674 25,61.5C 24.3333,60.1667 24.3333,58.8333 25,57.5C 31.1241,46.7486 37.6241,36.2486 44.5,26C 57.1667,25.3333 69.8333,25.3333 82.5,26C 84.6394,28.4784 86.6394,30.9784 88.5,33.5 Z"/></g>
<g><path style="opacity:1" fill="#f9f5f1" d="M 78.5,30.5 C 79.652,33.8151 81.9853,35.9817 85.5,37C 82.2716,38.5629 80.1049,41.0629 79,44.5C 77.3563,41.6894 75.1897,39.356 72.5,37.5C 75.2427,35.7607 77.2427,33.4274 78.5,30.5 Z"/></g>
<g><path style="opacity:0.99" fill="#d7a55a" d="M 97.5,32.5 C 101.641,39.4367 105.807,46.4367 110,53.5C 111.149,56.3926 111.649,59.3926 111.5,62.5C 104.774,73.6076 98.2742,84.9409 92,96.5C 90.0395,99.1353 87.5395,100.969 84.5,102C 70.1667,102.667 55.8333,102.667 41.5,102C 39.04,100.542 36.8734,98.7089 35,96.5C 32.4883,92.1392 29.9883,87.8059 27.5,83.5C 29.8576,80.7565 31.191,77.4232 31.5,73.5C 35.434,80.5224 39.7673,87.3557 44.5,94C 57.1667,94.6667 69.8333,94.6667 82.5,94C 90.0665,83.0353 96.7331,71.5353 102.5,59.5C 97.8254,50.8162 93.1587,42.1496 88.5,33.5C 91.7131,33.81 94.7131,33.4767 97.5,32.5 Z"/></g>
<g><path style="opacity:1" fill="#deb97c" d="M 61.5,54.5 C 69.5969,57.1388 76.7636,61.4721 83,67.5C 83.9337,72.0833 82.1004,73.5833 77.5,72C 73.2044,68.5339 68.5377,65.7006 63.5,63.5C 58.4623,65.7006 53.7956,68.5339 49.5,72C 45.3195,73.1197 43.4862,71.6197 44,67.5C 49.7345,62.918 55.5678,58.5846 61.5,54.5 Z"/></g>
<g><path style="opacity:0.918" fill="#a77231" d="M 15.5,62.5 C 19.7376,69.3019 23.7376,76.3019 27.5,83.5C 29.9883,87.8059 32.4883,92.1392 35,96.5C 36.8734,98.7089 39.04,100.542 41.5,102C 55.8333,102.667 70.1667,102.667 84.5,102C 87.5395,100.969 90.0395,99.1353 92,96.5C 98.2742,84.9409 104.774,73.6076 111.5,62.5C 111.737,66.2733 111.237,69.9399 110,73.5C 104.252,83.9971 98.2525,94.3304 92,104.5C 90.0395,107.135 87.5395,108.969 84.5,110C 77.5,110.167 70.5,110.333 63.5,110.5C 55.4268,110.619 47.4268,110.119 39.5,109C 36.9598,106.795 34.7932,104.295 33,101.5C 27.065,91.2953 21.3983,80.962 16,70.5C 15.5026,67.854 15.3359,65.1873 15.5,62.5 Z"/></g>
</svg>
