<?xml version="1.0" encoding="UTF-8"?>
<!DOCTYPE svg PUBLIC "-//W3C//DTD SVG 1.1//EN" "http://www.w3.org/Graphics/SVG/1.1/DTD/svg11.dtd">
<svg xmlns="http://www.w3.org/2000/svg" version="1.1" width="128px" height="128px" style="shape-rendering:geometricPrecision; text-rendering:geometricPrecision; image-rendering:optimizeQuality; fill-rule:evenodd; clip-rule:evenodd" xmlns:xlink="http://www.w3.org/1999/xlink">
<g><path style="opacity:0.971" fill="#dfdfdf" d="M 98.5,33.5 C 95.1667,33.5 91.8333,33.5 88.5,33.5C 86.6394,30.9784 84.6394,28.4784 82.5,26C 69.8333,25.3333 57.1667,25.3333 44.5,26C 37.6241,36.2486 31.1241,46.7486 25,57.5C 24.3333,58.8333 24.3333,60.1667 25,61.5C 26.9941,65.6432 29.1608,69.6432 31.5,73.5C 31.191,77.4232 29.8576,80.7565 27.5,83.5C 23.7376,76.3019 19.7376,69.3019 15.5,62.5C 15.2628,58.5898 16.0961,54.9231 18,51.5C 23,42.8333 28,34.1667 33,25.5C 34.7932,22.7047 36.9598,20.2047 39.5,18C 54.4319,16.3826 69.4319,16.0493 84.5,17C 87.5395,18.0314 90.0395,19.8647 92,22.5C 94.1782,26.1943 96.3448,29.8609 98.5,33.5 Z"/></g>
<g><path style="opacity:1" fill="#9e9e9e" d="M 88.5,33.5 C 93.2761,42.2162 97.9428,51.0496 102.5,60C 96.5965,71.8108 89.9298,83.1442 82.5,94C 69.8333,94.6667 57.1667,94.6667 44.5,94C 39.7673,87.3557 35.434,80.5224 31.5,73.5C 29.1608,69.6432 26.9941,65.6432 25,61.5C 24.3333,60.1667 24.3333,58.8333 25,57.5C 31.1241,46.7486 37.6241,36.2486 44.5,26C 57.1667,25.3333 69.8333,25.3333 82.5,26C 84.6394,28.4784 86.6394,30.9784 88.5,33.5 Z"/></g>
<g><path style="opacity:1" fill="#f8f8f8" d="M 78.5,30.5 C 79.652,33.8151 81.9853,35.9817 85.5,37C 82.2716,38.5629 80.1049,41.0629 79,44.5C 77.3563,41.6894 75.1897,39.356 72.5,37.5C 75.2427,35.7607 77.2427,33.4274 78.5,30.5 Z"/></g>
<g><path style="opacity:0.991" fill="#b4b4b4" d="M 88.5,33.5 C 91.8333,33.5 95.1667,33.5 98.5,33.5C 102.106,40.2785 105.939,46.9452 110,53.5C 111.149,56.3926 111.649,59.3926 111.5,62.5C 104.774,73.6076 98.2742,84.9409 92,96.5C 90.0395,99.1353 87.5395,100.969 84.5,102C 70.5,102.667 56.5,102.667 42.5,102C 39.4605,100.969 36.9605,99.1353 35,96.5C 32.6721,92.0203 30.1721,87.687 27.5,83.5C 29.8576,80.7565 31.191,77.4232 31.5,73.5C 35.434,80.5224 39.7673,87.3557 44.5,94C 57.1667,94.6667 69.8333,94.6667 82.5,94C 89.9298,83.1442 96.5965,71.8108 102.5,60C 97.9428,51.0496 93.2761,42.2162 88.5,33.5 Z"/></g>
<g><path style="opacity:1" fill="#dddddd" d="M 61.5,48.5 C 62.8734,48.3433 64.2068,48.51 65.5,49C 70.8333,52.6667 76.1667,56.3333 81.5,60C 83.3054,64.1854 81.972,66.1854 77.5,66C 73.2044,62.5339 68.5377,59.7006 63.5,57.5C 59.0339,59.2342 55.0339,61.7342 51.5,65C 46.6027,67.4356 44.436,65.9356 45,60.5C 50.6559,56.601 56.1559,52.601 61.5,48.5 Z"/></g>
<g><path style="opacity:1" fill="#dddddd" d="M 62.5,59.5 C 69.6991,63.1878 76.5325,67.5212 83,72.5C 83.8333,77 82,78.8333 77.5,78C 72.8099,72.911 67.1432,70.2443 60.5,70C 56.6562,72.422 52.9895,75.0887 49.5,78C 45,78.8333 43.1667,77 44,72.5C 50.3208,68.2676 56.4875,63.9342 62.5,59.5 Z"/></g>
<g><path style="opacity:0.901" fill="#9e9e9e" d="M 15.5,62.5 C 19.7376,69.3019 23.7376,76.3019 27.5,83.5C 30.1721,87.687 32.6721,92.0203 35,96.5C 36.9605,99.1353 39.4605,100.969 42.5,102C 56.5,102.667 70.5,102.667 84.5,102C 87.5395,100.969 90.0395,99.1353 92,96.5C 98.2742,84.9409 104.774,73.6076 111.5,62.5C 111.737,66.2733 111.237,69.9399 110,73.5C 104.252,83.9971 98.2525,94.3304 92,104.5C 90.0395,107.135 87.5395,108.969 84.5,110C 77.5,110.167 70.5,110.333 63.5,110.5C 55.4268,110.619 47.4268,110.119 39.5,109C 36.9598,106.795 34.7932,104.295 33,101.5C 27.065,91.2953 21.3983,80.962 16,70.5C 15.5026,67.854 15.3359,65.1873 15.5,62.5 Z"/></g>
</svg>
